<svg width="1951" height="606" viewBox="0 0 1951 606" fill="none" xmlns="http://www.w3.org/2000/svg">
<path d="M30 36C43.3333 36 54 46 62 66C94 146 125.333 264.667 156 422C158.667 436.667 162.333 452 167 468C208.333 282.667 264.667 136.667 336 29.9999C349.333 9.99997 360.667 -2.52724e-05 370 -2.52724e-05C390 -2.52724e-05 400 9.99997 400 29.9999C400 35.9999 394.667 47 384 63C312 171 254 335.333 210 556C206 576 196 586 180 586C166.667 586 152.333 574.667 137 552C121.667 528.667 108.667 490 98 436C66.6667 280.667 35.6667 164.333 5 87C1.66667 78.3333 7.45058e-07 70.6666 7.45058e-07 64C7.45058e-07 56.6666 2.66667 50.3333 8 45C13.3333 39 20.6667 36 30 36ZM580 96L570 376C570 410.667 571.667 447 575 485C579 522.333 582.333 545.333 585 554C588.333 562.667 590 570 590 576C590 596 580 606 560 606C546.667 606 536.667 596 530 576C516.667 536 510 469.333 510 376L520 96C520 76 530 66 550 66C570 66 580 76 580 96ZM1320.23 75.9999L1310.23 356C1310.23 390.667 1311.9 427 1315.23 465C1319.23 502.333 1322.57 525.333 1325.23 534C1328.57 542.667 1330.23 550 1330.23 556C1330.23 576 1320.23 586 1300.23 586C1286.9 586 1276.9 576 1270.23 556C1256.9 516 1250.23 449.333 1250.23 356L1260.23 75.9999C1260.23 56 1270.23 46 1290.23 46C1310.23 46 1320.23 56 1320.23 75.9999ZM760.234 586C740.234 586 730.234 576 730.234 556C730.234 536 740.234 526 760.234 526C893.568 526 985.234 516 1035.23 496C1058.57 486.667 1070.23 477 1070.23 467C1070.23 457 1061.9 448 1045.23 440C1029.23 432 1001.9 421.667 963.234 409C925.234 396.333 896.234 385.667 876.234 377C778.901 336.333 730.234 274.667 730.234 192C730.234 138 753.568 92.6666 800.234 56C846.901 18.6666 902.901 -2.52724e-05 968.234 -2.52724e-05C1004.23 -2.52724e-05 1034.23 10.6666 1058.23 32C1082.9 53.3333 1095.23 79 1095.23 109C1095.23 139 1083.57 165.667 1060.23 189C1036.9 212.333 1020.9 224 1012.23 224C992.234 224 982.234 214 982.234 194C982.234 185.333 990.901 172.333 1008.23 155C1026.23 137 1035.23 123.333 1035.23 114C1035.23 98 1028.9 85 1016.23 75C1004.23 65 988.568 60 969.234 60C919.901 60 877.568 72.6666 842.234 98C807.568 122.667 790.234 152.667 790.234 188C790.234 223.333 799.901 251 819.234 271C839.234 291 861.568 306.333 886.234 317C911.568 327 936.901 336.333 962.234 345C987.568 353 1008.57 360.333 1025.23 367C1042.57 373 1059.9 380.667 1077.23 390C1112.57 409.333 1130.23 434.667 1130.23 466C1130.23 506.667 1100.9 537 1042.23 557C984.234 576.333 890.234 586 760.234 586ZM1610.47 136C1630.47 136 1640.47 146 1640.47 166C1640.47 182 1630.47 192 1610.47 196C1583.14 201.333 1562.8 220.667 1549.47 254C1536.8 286.667 1530.47 324.667 1530.47 368C1530.47 410.667 1546.14 447.667 1577.47 479C1608.8 510.333 1648.14 526 1695.47 526C1742.8 526 1787.14 505.333 1828.47 464C1869.8 422 1890.47 376 1890.47 326C1890.47 267.333 1881.47 210.667 1863.47 156C1854.14 128 1840.47 105 1822.47 87C1804.47 69 1781.47 60 1753.47 60C1725.47 60 1702.8 65 1685.47 75C1668.14 85 1656.47 90 1650.47 90C1630.47 90 1620.47 80 1620.47 60C1620.47 49.3333 1630.47 38 1650.47 26C1661.14 19.3333 1677.47 13.3333 1699.47 7.99999C1721.47 2.66665 1741.8 -2.52724e-05 1760.47 -2.52724e-05C1794.47 -2.52724e-05 1824.47 9.99997 1850.47 29.9999C1875.8 50 1895.47 76.6666 1909.47 110C1936.8 174.667 1950.47 246.667 1950.47 326C1950.47 392.667 1923.8 452.667 1870.47 506C1817.14 559.333 1758.8 586 1695.47 586C1632.14 586 1578.8 564.333 1535.47 521C1492.14 477.667 1470.47 424.333 1470.47 361C1470.47 297 1482.8 245.667 1507.47 207C1532.14 167.667 1561.47 144.667 1595.47 138C1602.14 136.667 1607.14 136 1610.47 136Z" fill="black"/>
</svg>
