<svg width="2535" height="732" viewBox="0 0 2535 732" fill="none" xmlns="http://www.w3.org/2000/svg">
<g filter="url(#filter0_d_6_12)">
<mask id="path-1-outside-1_6_12" maskUnits="userSpaceOnUse" x="3" y="-1" width="2529" height="726" fill="black">
<rect fill="white" x="3" y="-1" width="2529" height="726"/>
<path d="M360.285 500.504C360.285 497.9 365.168 482.763 374.934 455.094C384.699 427.424 393.326 402.685 400.812 380.875C408.625 359.065 416.438 336.604 424.25 313.492C432.388 290.38 440.201 267.268 447.688 244.156C455.5 221.044 462.336 199.56 468.195 179.703C481.867 135.107 488.703 107.112 488.703 95.7188C488.703 84 486.587 75.862 482.355 71.3047C478.449 66.4219 473.404 63.0039 467.219 61.0508C461.034 59.0977 454.361 57.3073 447.199 55.6797C440.038 54.0521 433.365 50.7969 427.18 45.9141V15.1523H619.562V45.9141C614.354 49.1693 608.658 51.9362 602.473 54.2148C596.288 56.4935 589.94 59.2604 583.43 62.5156C568.456 70.6536 557.714 83.8372 551.203 102.066L384.211 583.512L360.285 500.504ZM367.121 632.828L336.848 720.23H276.789L67.3164 88.8828C61.7826 73.2578 47.6224 61.8646 24.8359 54.7031C18.3255 52.4245 11.6523 49.4948 4.81641 45.9141V15.1523H256.77V45.9141C248.632 49.1693 240.656 51.7734 232.844 53.7266C225.031 55.6797 218.195 57.9583 212.336 60.5625C198.664 65.7708 191.828 73.2578 191.828 83.0234C191.828 92.4635 193.618 102.229 197.199 112.32C201.105 122.411 205.174 133.967 209.406 146.988L367.121 632.828ZM905.695 15.1523V43.9609C896.255 47.8672 887.303 50.9596 878.84 53.2383C870.376 55.5169 863.052 58.4466 856.867 62.0273C842.87 69.8398 835.871 84.1628 835.871 104.996V619.156C835.871 639.99 842.87 654.312 856.867 662.125C863.378 665.706 870.865 668.635 879.328 670.914C887.792 673.193 896.906 676.285 906.672 680.191V709H643.488V680.191C652.928 676.285 661.88 673.193 670.344 670.914C678.807 668.635 686.294 665.706 692.805 662.125C707.128 654.312 714.289 639.99 714.289 619.156V104.996C714.289 84.1628 707.128 69.8398 692.805 62.0273C686.294 58.4466 678.807 55.5169 670.344 53.2383C661.88 50.9596 652.928 47.8672 643.488 43.9609V15.1523H905.695ZM1241.63 1.48047C1265.72 3.75911 1286.23 9.29297 1303.16 18.082C1320.41 26.8711 1332.13 33.056 1338.31 36.6367C1344.82 40.2174 1350.19 42.0078 1354.43 42.0078C1358.98 42.0078 1362.73 41.0312 1365.66 39.0781C1368.59 37.125 1371.19 34.8464 1373.47 32.2422C1375.75 29.638 1377.7 26.8711 1379.33 23.9414C1380.96 20.6862 1382.58 17.7565 1384.21 15.1523H1429.13V244.156H1393.98C1386.82 236.669 1378.68 220.393 1369.56 195.328C1360.45 169.938 1352.64 149.755 1346.12 134.781C1339.94 119.807 1332.13 105.81 1322.69 92.7891C1301.85 63.8177 1274.84 46.7279 1241.63 41.5195V1.48047ZM1142.51 706.559C1123.31 697.77 1109.8 691.585 1101.98 688.004C1094.17 684.098 1086.03 682.145 1077.57 682.145C1069.43 682.145 1060.32 691.096 1050.23 709H1004.82V467.789H1038.51C1045.67 475.276 1052.02 485.53 1057.55 498.551C1063.41 511.572 1069.43 525.732 1075.62 541.031C1082.13 556.005 1089.13 571.467 1096.61 587.418C1104.1 603.368 1113.21 618.18 1123.96 631.852C1148.05 662.125 1178.64 679.215 1215.75 683.121V723.16C1186.46 720.556 1162.04 715.022 1142.51 706.559ZM1256.28 682.633C1291.44 678.401 1318.62 664.078 1337.82 639.664C1354.75 617.854 1363.21 592.952 1363.21 564.957C1363.21 536.637 1358.17 514.013 1348.08 497.086C1337.99 479.833 1324.64 464.697 1308.04 451.676C1291.76 438.329 1273.05 426.285 1251.89 415.543C1230.73 404.801 1209.08 394.221 1186.95 383.805C1165.14 373.062 1143.65 361.995 1122.49 350.602C1101.66 338.883 1083.1 325.536 1066.83 310.562C1030.04 276.708 1011.65 235.53 1011.65 187.027C1011.65 137.874 1028.42 95.8815 1061.95 61.0508C1097.75 24.5924 1144.14 4.41016 1201.11 0.503906V41.0312C1160.74 46.2396 1133.56 66.9102 1119.56 103.043C1115.01 114.762 1112.73 129.41 1112.73 146.988C1112.73 164.566 1117.93 181.005 1128.35 196.305C1138.77 211.604 1152.44 225.276 1169.37 237.32C1186.29 249.365 1205.5 260.432 1226.98 270.523C1248.79 280.615 1270.93 290.868 1293.39 301.285C1316.18 311.702 1338.31 322.932 1359.8 334.977C1381.61 347.021 1400.98 361.018 1417.9 376.969C1455.66 413.102 1474.54 456.721 1474.54 507.828C1474.54 563.167 1454.52 611.344 1414.48 652.359C1372.49 695.979 1319.76 719.742 1256.28 723.648V682.633ZM1828.55 15.1523V43.9609C1819.11 47.8672 1810.15 50.9596 1801.69 53.2383C1793.23 55.5169 1785.9 58.4466 1779.72 62.0273C1765.72 69.8398 1758.72 84.1628 1758.72 104.996V619.156C1758.72 639.99 1765.72 654.312 1779.72 662.125C1786.23 665.706 1793.72 668.635 1802.18 670.914C1810.64 673.193 1819.76 676.285 1829.52 680.191V709H1566.34V680.191C1575.78 676.285 1584.73 673.193 1593.2 670.914C1601.66 668.635 1609.15 665.706 1615.66 662.125C1629.98 654.312 1637.14 639.99 1637.14 619.156V104.996C1637.14 84.1628 1629.98 69.8398 1615.66 62.0273C1609.15 58.4466 1601.66 55.5169 1593.2 53.2383C1584.73 50.9596 1575.78 47.8672 1566.34 43.9609V15.1523H1828.55ZM2203.06 723.648C2119.73 717.789 2050.88 680.029 1996.52 610.367C1943.78 542.659 1917.41 459.814 1917.41 361.832C1917.41 264.501 1943.78 181.982 1996.52 114.273C2050.88 44.612 2119.73 6.85156 2203.06 0.992188V41.0312C2155.21 45.9141 2119.24 71.3047 2095.15 117.203C2068.13 169.938 2054.62 251.48 2054.62 361.832C2054.62 523.941 2083.76 624.039 2142.02 662.125C2160.25 673.844 2180.6 680.842 2203.06 683.121V723.648ZM2243.59 683.121C2316.5 675.634 2362.4 617.529 2381.28 508.805C2388.44 468.766 2392.02 419.775 2392.02 361.832C2392.02 200.374 2362.89 100.602 2304.62 62.5156C2286.39 50.7969 2266.05 43.6354 2243.59 41.0312V0.503906C2327.57 6.36328 2396.58 43.9609 2450.62 113.297C2503.68 181.331 2530.21 264.176 2530.21 361.832C2530.21 459.488 2503.68 542.333 2450.62 610.367C2396.58 679.703 2327.57 717.301 2243.59 723.16V683.121Z"/>
</mask>
<path d="M360.285 500.504C360.285 497.9 365.168 482.763 374.934 455.094C384.699 427.424 393.326 402.685 400.812 380.875C408.625 359.065 416.438 336.604 424.25 313.492C432.388 290.38 440.201 267.268 447.688 244.156C455.5 221.044 462.336 199.56 468.195 179.703C481.867 135.107 488.703 107.112 488.703 95.7188C488.703 84 486.587 75.862 482.355 71.3047C478.449 66.4219 473.404 63.0039 467.219 61.0508C461.034 59.0977 454.361 57.3073 447.199 55.6797C440.038 54.0521 433.365 50.7969 427.18 45.9141V15.1523H619.562V45.9141C614.354 49.1693 608.658 51.9362 602.473 54.2148C596.288 56.4935 589.94 59.2604 583.43 62.5156C568.456 70.6536 557.714 83.8372 551.203 102.066L384.211 583.512L360.285 500.504ZM367.121 632.828L336.848 720.23H276.789L67.3164 88.8828C61.7826 73.2578 47.6224 61.8646 24.8359 54.7031C18.3255 52.4245 11.6523 49.4948 4.81641 45.9141V15.1523H256.77V45.9141C248.632 49.1693 240.656 51.7734 232.844 53.7266C225.031 55.6797 218.195 57.9583 212.336 60.5625C198.664 65.7708 191.828 73.2578 191.828 83.0234C191.828 92.4635 193.618 102.229 197.199 112.32C201.105 122.411 205.174 133.967 209.406 146.988L367.121 632.828ZM905.695 15.1523V43.9609C896.255 47.8672 887.303 50.9596 878.84 53.2383C870.376 55.5169 863.052 58.4466 856.867 62.0273C842.87 69.8398 835.871 84.1628 835.871 104.996V619.156C835.871 639.99 842.87 654.312 856.867 662.125C863.378 665.706 870.865 668.635 879.328 670.914C887.792 673.193 896.906 676.285 906.672 680.191V709H643.488V680.191C652.928 676.285 661.88 673.193 670.344 670.914C678.807 668.635 686.294 665.706 692.805 662.125C707.128 654.312 714.289 639.99 714.289 619.156V104.996C714.289 84.1628 707.128 69.8398 692.805 62.0273C686.294 58.4466 678.807 55.5169 670.344 53.2383C661.88 50.9596 652.928 47.8672 643.488 43.9609V15.1523H905.695ZM1241.63 1.48047C1265.72 3.75911 1286.23 9.29297 1303.16 18.082C1320.41 26.8711 1332.13 33.056 1338.31 36.6367C1344.82 40.2174 1350.19 42.0078 1354.43 42.0078C1358.98 42.0078 1362.73 41.0312 1365.66 39.0781C1368.59 37.125 1371.19 34.8464 1373.47 32.2422C1375.75 29.638 1377.7 26.8711 1379.33 23.9414C1380.96 20.6862 1382.58 17.7565 1384.21 15.1523H1429.13V244.156H1393.98C1386.82 236.669 1378.68 220.393 1369.56 195.328C1360.45 169.938 1352.64 149.755 1346.12 134.781C1339.94 119.807 1332.13 105.81 1322.69 92.7891C1301.85 63.8177 1274.84 46.7279 1241.63 41.5195V1.48047ZM1142.51 706.559C1123.31 697.77 1109.8 691.585 1101.98 688.004C1094.17 684.098 1086.03 682.145 1077.57 682.145C1069.43 682.145 1060.32 691.096 1050.23 709H1004.82V467.789H1038.51C1045.67 475.276 1052.02 485.53 1057.55 498.551C1063.41 511.572 1069.43 525.732 1075.62 541.031C1082.13 556.005 1089.13 571.467 1096.61 587.418C1104.1 603.368 1113.21 618.18 1123.96 631.852C1148.05 662.125 1178.64 679.215 1215.75 683.121V723.16C1186.46 720.556 1162.04 715.022 1142.51 706.559ZM1256.28 682.633C1291.44 678.401 1318.62 664.078 1337.82 639.664C1354.75 617.854 1363.21 592.952 1363.21 564.957C1363.21 536.637 1358.17 514.013 1348.08 497.086C1337.99 479.833 1324.64 464.697 1308.04 451.676C1291.76 438.329 1273.05 426.285 1251.89 415.543C1230.73 404.801 1209.08 394.221 1186.95 383.805C1165.14 373.062 1143.65 361.995 1122.49 350.602C1101.66 338.883 1083.1 325.536 1066.83 310.562C1030.04 276.708 1011.65 235.53 1011.65 187.027C1011.65 137.874 1028.42 95.8815 1061.95 61.0508C1097.75 24.5924 1144.14 4.41016 1201.11 0.503906V41.0312C1160.74 46.2396 1133.56 66.9102 1119.56 103.043C1115.01 114.762 1112.73 129.41 1112.73 146.988C1112.73 164.566 1117.93 181.005 1128.35 196.305C1138.77 211.604 1152.44 225.276 1169.37 237.32C1186.29 249.365 1205.5 260.432 1226.98 270.523C1248.79 280.615 1270.93 290.868 1293.39 301.285C1316.18 311.702 1338.31 322.932 1359.8 334.977C1381.61 347.021 1400.98 361.018 1417.9 376.969C1455.66 413.102 1474.54 456.721 1474.54 507.828C1474.54 563.167 1454.52 611.344 1414.48 652.359C1372.49 695.979 1319.76 719.742 1256.28 723.648V682.633ZM1828.55 15.1523V43.9609C1819.11 47.8672 1810.15 50.9596 1801.69 53.2383C1793.23 55.5169 1785.9 58.4466 1779.72 62.0273C1765.72 69.8398 1758.72 84.1628 1758.72 104.996V619.156C1758.72 639.99 1765.72 654.312 1779.72 662.125C1786.23 665.706 1793.72 668.635 1802.18 670.914C1810.64 673.193 1819.76 676.285 1829.52 680.191V709H1566.34V680.191C1575.78 676.285 1584.73 673.193 1593.2 670.914C1601.66 668.635 1609.15 665.706 1615.66 662.125C1629.98 654.312 1637.14 639.99 1637.14 619.156V104.996C1637.14 84.1628 1629.98 69.8398 1615.66 62.0273C1609.15 58.4466 1601.66 55.5169 1593.2 53.2383C1584.73 50.9596 1575.78 47.8672 1566.34 43.9609V15.1523H1828.55ZM2203.06 723.648C2119.73 717.789 2050.88 680.029 1996.52 610.367C1943.78 542.659 1917.41 459.814 1917.41 361.832C1917.41 264.501 1943.78 181.982 1996.52 114.273C2050.88 44.612 2119.73 6.85156 2203.06 0.992188V41.0312C2155.21 45.9141 2119.24 71.3047 2095.15 117.203C2068.13 169.938 2054.62 251.48 2054.62 361.832C2054.62 523.941 2083.76 624.039 2142.02 662.125C2160.25 673.844 2180.6 680.842 2203.06 683.121V723.648ZM2243.59 683.121C2316.5 675.634 2362.4 617.529 2381.28 508.805C2388.44 468.766 2392.02 419.775 2392.02 361.832C2392.02 200.374 2362.89 100.602 2304.62 62.5156C2286.39 50.7969 2266.05 43.6354 2243.59 41.0312V0.503906C2327.57 6.36328 2396.58 43.9609 2450.62 113.297C2503.68 181.331 2530.21 264.176 2530.21 361.832C2530.21 459.488 2503.68 542.333 2450.62 610.367C2396.58 679.703 2327.57 717.301 2243.59 723.16V683.121Z" fill="black"/>
<path d="M360.285 500.504H359.285V500.645L359.324 500.781L360.285 500.504ZM374.934 455.094L373.991 454.761L374.934 455.094ZM400.812 380.875L399.871 380.538L399.867 380.55L400.812 380.875ZM424.25 313.492L423.307 313.16L423.303 313.172L424.25 313.492ZM447.688 244.156L446.74 243.836L446.736 243.848L447.688 244.156ZM468.195 179.703L467.239 179.41L467.236 179.42L468.195 179.703ZM482.355 71.3047L481.575 71.9294L481.598 71.9581L481.623 71.9851L482.355 71.3047ZM427.18 45.9141H426.18V46.3987L426.56 46.6989L427.18 45.9141ZM427.18 15.1523V14.1523H426.18V15.1523H427.18ZM619.562 15.1523H620.562V14.1523H619.562V15.1523ZM619.562 45.9141L620.092 46.7621L620.562 46.4683V45.9141H619.562ZM583.43 62.5156L582.982 61.6212L582.967 61.6288L582.952 61.637L583.43 62.5156ZM551.203 102.066L550.261 101.73L550.258 101.739L551.203 102.066ZM384.211 583.512L383.25 583.789L384.123 586.817L385.156 583.839L384.211 583.512ZM367.121 632.828L368.066 633.155L368.176 632.838L368.072 632.519L367.121 632.828ZM336.848 720.23V721.23H337.56L337.793 720.558L336.848 720.23ZM276.789 720.23L275.84 720.545L276.067 721.23H276.789V720.23ZM67.3164 88.8828L68.2655 88.5679L68.2624 88.5584L68.259 88.549L67.3164 88.8828ZM24.8359 54.7031L24.5056 55.647L24.5208 55.6523L24.5361 55.6571L24.8359 54.7031ZM4.81641 45.9141H3.81641V46.5191L4.3524 46.7999L4.81641 45.9141ZM4.81641 15.1523V14.1523H3.81641V15.1523H4.81641ZM256.77 15.1523H257.77V14.1523H256.77V15.1523ZM256.77 45.9141L257.141 46.8425L257.77 46.5911V45.9141H256.77ZM212.336 60.5625L212.692 61.497L212.717 61.4873L212.742 61.4763L212.336 60.5625ZM197.199 112.32L196.257 112.655L196.262 112.668L196.267 112.681L197.199 112.32ZM209.406 146.988L210.357 146.68L210.357 146.679L209.406 146.988ZM361.285 500.504C361.285 500.292 361.341 499.86 361.492 499.148C361.639 498.458 361.862 497.565 362.165 496.466C362.77 494.269 363.68 491.284 364.899 487.505C367.336 479.95 370.995 469.258 375.877 455.427L373.991 454.761C369.107 468.598 365.441 479.31 362.996 486.891C361.773 490.681 360.853 493.698 360.237 495.936C359.929 497.054 359.694 497.988 359.536 498.732C359.382 499.454 359.285 500.065 359.285 500.504H361.285ZM375.877 455.427C385.643 427.755 394.27 403.013 401.758 381.2L399.867 380.55C392.381 402.357 383.756 427.094 373.991 454.761L375.877 455.427ZM401.754 381.212C409.569 359.396 417.383 336.93 425.197 313.812L423.303 313.172C415.492 336.279 407.681 358.734 399.871 380.538L401.754 381.212ZM425.193 313.824C433.334 290.704 441.149 267.584 448.639 244.464L446.736 243.848C439.252 266.952 431.442 290.056 423.307 313.16L425.193 313.824ZM448.635 244.476C456.451 221.354 463.291 199.857 469.154 179.986L467.236 179.42C461.381 199.262 454.549 220.734 446.74 243.836L448.635 244.476ZM469.151 179.996C475.99 157.689 481.123 139.521 484.548 125.497C487.964 111.505 489.703 101.55 489.703 95.7188H487.703C487.703 101.281 486.024 111.02 482.605 125.023C479.193 138.993 474.072 157.121 467.239 179.41L469.151 179.996ZM489.703 95.7188C489.703 83.945 487.591 75.4728 483.088 70.6242L481.623 71.9851C485.584 76.2512 487.703 84.055 487.703 95.7188H489.703ZM483.136 70.68C479.102 65.6364 473.886 62.1076 467.52 60.0972L466.918 62.0044C472.921 63.9002 477.797 67.2073 481.575 71.9294L483.136 70.68ZM467.52 60.0972C461.306 58.1348 454.606 56.3375 447.421 54.7046L446.978 56.6548C454.116 58.2771 460.762 60.0605 466.918 62.0044L467.52 60.0972ZM447.421 54.7046C440.415 53.1123 433.876 49.9266 427.799 45.1292L426.56 46.6989C432.853 51.6672 439.661 54.9919 446.978 56.6548L447.421 54.7046ZM428.18 45.9141V15.1523H426.18V45.9141H428.18ZM427.18 16.1523H619.562V14.1523H427.18V16.1523ZM618.562 15.1523V45.9141H620.562V15.1523H618.562ZM619.033 45.0661C613.886 48.2824 608.252 51.0199 602.127 53.2765L602.818 55.1532C609.063 52.8525 614.822 50.0562 620.092 46.7621L619.033 45.0661ZM602.127 53.2765C595.904 55.5691 589.523 58.3512 582.982 61.6212L583.877 63.4101C590.358 60.1697 596.671 57.4178 602.818 55.1532L602.127 53.2765ZM582.952 61.637C567.733 69.9085 556.843 83.3029 550.261 101.73L552.145 102.403C558.585 84.3716 569.179 71.3987 583.907 63.3942L582.952 61.637ZM550.258 101.739L383.266 583.184L385.156 583.839L552.148 102.394L550.258 101.739ZM385.172 583.235L361.246 500.227L359.324 500.781L383.25 583.789L385.172 583.235ZM366.176 632.501L335.903 719.903L337.793 720.558L368.066 633.155L366.176 632.501ZM336.848 719.23H276.789V721.23H336.848V719.23ZM277.738 719.916L68.2655 88.5679L66.3673 89.1977L275.84 720.545L277.738 719.916ZM68.259 88.549C62.5796 72.513 48.0829 60.9611 25.1358 53.7491L24.5361 55.6571C47.1619 62.7681 60.9855 74.0027 66.3738 89.2167L68.259 88.549ZM25.1663 53.7593C18.7068 51.4984 12.0783 48.589 5.28041 45.0282L4.3524 46.7999C11.2264 50.4006 17.9442 53.3505 24.5056 55.647L25.1663 53.7593ZM5.81641 45.9141V15.1523H3.81641V45.9141H5.81641ZM4.81641 16.1523H256.77V14.1523H4.81641V16.1523ZM255.77 15.1523V45.9141H257.77V15.1523H255.77ZM256.398 44.9856C248.298 48.2255 240.366 50.8152 232.601 52.7564L233.086 54.6967C240.946 52.7317 248.965 50.1131 257.141 46.8425L256.398 44.9856ZM232.601 52.7564C224.746 54.7202 217.853 57.016 211.93 59.6487L212.742 61.4763C218.537 58.9007 225.316 56.6392 233.086 54.6967L232.601 52.7564ZM211.98 59.628C198.147 64.8978 190.828 72.6443 190.828 83.0234H192.828C192.828 73.8713 199.181 66.6439 212.692 61.497L211.98 59.628ZM190.828 83.0234C190.828 92.5917 192.643 102.47 196.257 112.655L198.142 111.986C194.594 101.988 192.828 92.3354 192.828 83.0234H190.828ZM196.267 112.681C200.165 122.752 204.228 134.29 208.455 147.297L210.357 146.679C206.121 133.645 202.046 122.071 198.132 111.959L196.267 112.681ZM208.455 147.297L366.17 633.137L368.072 632.519L210.357 146.68L208.455 147.297ZM905.695 15.1523H906.695V14.1523H905.695V15.1523ZM905.695 43.9609L906.078 44.885L906.695 44.6294V43.9609H905.695ZM856.867 62.0273L857.355 62.9005L857.361 62.8967L857.368 62.8928L856.867 62.0273ZM856.867 662.125L856.38 662.998L856.385 663.001L856.867 662.125ZM906.672 680.191H907.672V679.514L907.043 679.263L906.672 680.191ZM906.672 709V710H907.672V709H906.672ZM643.488 709H642.488V710H643.488V709ZM643.488 680.191L643.106 679.267L642.488 679.523V680.191H643.488ZM692.805 662.125L692.326 661.247L692.323 661.249L692.805 662.125ZM692.805 62.0273L692.323 62.9036L692.326 62.9052L692.805 62.0273ZM643.488 43.9609H642.488V44.6294L643.106 44.885L643.488 43.9609ZM643.488 15.1523V14.1523H642.488V15.1523H643.488ZM904.695 15.1523V43.9609H906.695V15.1523H904.695ZM905.313 43.0369C895.906 46.9293 886.996 50.0069 878.58 52.2727L879.1 54.2039C887.611 51.9124 896.604 48.8051 906.078 44.885L905.313 43.0369ZM878.58 52.2727C870.05 54.5691 862.641 57.5288 856.366 61.1619L857.368 62.8928C863.463 59.3644 870.702 56.4647 879.1 54.2039L878.58 52.2727ZM856.38 61.1541C841.97 69.197 834.871 83.9259 834.871 104.996H836.871C836.871 84.3996 843.77 70.4827 857.355 62.9005L856.38 61.1541ZM834.871 104.996V619.156H836.871V104.996H834.871ZM834.871 619.156C834.871 640.226 841.97 654.955 856.38 662.998L857.355 661.252C843.77 653.67 836.871 639.753 836.871 619.156H834.871ZM856.385 663.001C862.977 666.627 870.541 669.584 879.068 671.88L879.588 669.948C871.188 667.687 863.778 664.785 857.349 661.249L856.385 663.001ZM879.068 671.88C887.487 674.146 896.564 677.225 906.3 681.12L907.043 679.263C897.248 675.345 888.096 672.239 879.588 669.948L879.068 671.88ZM905.672 680.191V709H907.672V680.191H905.672ZM906.672 708H643.488V710H906.672V708ZM644.488 709V680.191H642.488V709H644.488ZM643.871 681.115C653.277 677.223 662.188 674.145 670.604 671.88L670.084 669.948C661.572 672.24 652.58 675.347 643.106 679.267L643.871 681.115ZM670.604 671.88C679.131 669.584 686.695 666.627 693.287 663.001L692.323 661.249C685.894 664.785 678.483 667.687 670.084 669.948L670.604 671.88ZM693.284 663.003C708.02 654.965 715.289 640.237 715.289 619.156H713.289C713.289 639.742 706.235 653.66 692.326 661.247L693.284 663.003ZM715.289 619.156V104.996H713.289V619.156H715.289ZM715.289 104.996C715.289 83.9153 708.02 69.1874 693.284 61.1494L692.326 62.9052C706.235 70.4923 713.289 84.4103 713.289 104.996H715.289ZM693.287 61.1511C686.695 57.5257 679.131 54.5685 670.604 52.2727L670.084 54.2039C678.483 56.4653 685.894 59.3676 692.323 62.9036L693.287 61.1511ZM670.604 52.2727C662.188 50.0069 653.277 46.9293 643.871 43.0369L643.106 44.885C652.58 48.8051 661.572 51.9124 670.084 54.2039L670.604 52.2727ZM644.488 43.9609V15.1523H642.488V43.9609H644.488ZM643.488 16.1523H905.695V14.1523H643.488V16.1523ZM1241.63 1.48047L1241.73 0.484913L1240.63 0.38141V1.48047H1241.63ZM1303.16 18.082L1302.7 18.9696L1302.7 18.9731L1303.16 18.082ZM1338.31 36.6367L1337.81 37.5021L1337.82 37.5076L1337.83 37.5129L1338.31 36.6367ZM1379.33 23.9414L1380.2 24.427L1380.21 24.4081L1380.22 24.3886L1379.33 23.9414ZM1384.21 15.1523V14.1523H1383.66L1383.36 14.6223L1384.21 15.1523ZM1429.13 15.1523H1430.13V14.1523H1429.13V15.1523ZM1429.13 244.156V245.156H1430.13V244.156H1429.13ZM1393.98 244.156L1393.25 244.847L1393.55 245.156H1393.98V244.156ZM1369.56 195.328L1368.62 195.666L1368.62 195.67L1369.56 195.328ZM1346.12 134.781L1345.2 135.163L1345.2 135.172L1345.21 135.18L1346.12 134.781ZM1322.69 92.7891L1321.88 93.3729L1321.88 93.376L1322.69 92.7891ZM1241.63 41.5195H1240.63V42.3749L1241.48 42.5075L1241.63 41.5195ZM1142.51 706.559L1142.1 707.468L1142.1 707.472L1142.11 707.476L1142.51 706.559ZM1101.98 688.004L1101.54 688.898L1101.55 688.906L1101.57 688.913L1101.98 688.004ZM1050.23 709V710H1050.81L1051.1 709.491L1050.23 709ZM1004.82 709H1003.82V710H1004.82V709ZM1004.82 467.789V466.789H1003.82V467.789H1004.82ZM1038.51 467.789L1039.23 467.098L1038.94 466.789H1038.51V467.789ZM1057.55 498.551L1056.63 498.942L1056.63 498.952L1056.64 498.961L1057.55 498.551ZM1075.62 541.031L1074.69 541.406L1074.69 541.418L1074.7 541.43L1075.62 541.031ZM1096.61 587.418L1095.71 587.843L1096.61 587.418ZM1123.96 631.852L1123.17 632.469L1123.17 632.474L1123.96 631.852ZM1215.75 683.121H1216.75V682.221L1215.86 682.127L1215.75 683.121ZM1215.75 723.16L1215.67 724.156L1216.75 724.253V723.16H1215.75ZM1256.28 682.633L1256.16 681.64L1255.28 681.746V682.633H1256.28ZM1337.82 639.664L1338.61 640.282L1338.61 640.277L1337.82 639.664ZM1348.08 497.086L1347.21 497.591L1347.22 497.598L1348.08 497.086ZM1308.04 451.676L1307.4 452.449L1307.41 452.456L1307.42 452.463L1308.04 451.676ZM1186.95 383.805L1186.5 384.702L1186.51 384.706L1186.52 384.71L1186.95 383.805ZM1122.49 350.602L1122 351.473L1122.01 351.478L1122.02 351.482L1122.49 350.602ZM1066.83 310.562L1066.15 311.298L1066.15 311.298L1066.83 310.562ZM1061.95 61.0508L1061.23 60.35L1061.22 60.3573L1061.95 61.0508ZM1201.11 0.503906H1202.11V-0.567013L1201.04 -0.493751L1201.11 0.503906ZM1201.11 41.0312L1201.23 42.023L1202.11 41.9105V41.0312H1201.11ZM1119.56 103.043L1120.49 103.405L1120.49 103.404L1119.56 103.043ZM1128.35 196.305L1129.18 195.742L1128.35 196.305ZM1226.98 270.523L1226.56 271.429L1226.56 271.431L1226.98 270.523ZM1293.39 301.285L1292.97 302.192L1292.97 302.195L1293.39 301.285ZM1359.8 334.977L1359.31 335.849L1359.31 335.852L1359.8 334.977ZM1417.9 376.969L1418.59 376.246L1418.59 376.241L1417.9 376.969ZM1414.48 652.359L1413.77 651.661L1413.76 651.666L1414.48 652.359ZM1256.28 723.648H1255.28V724.712L1256.34 724.647L1256.28 723.648ZM1241.54 2.47602C1265.53 4.74568 1285.91 10.2533 1302.7 18.9695L1303.62 17.1945C1286.55 8.33264 1265.91 2.77255 1241.73 0.484913L1241.54 2.47602ZM1302.7 18.9731C1319.96 27.7632 1331.65 33.9367 1337.81 37.5021L1338.81 35.7713C1332.6 32.1752 1320.86 25.979 1303.61 17.191L1302.7 18.9731ZM1337.83 37.5129C1344.39 41.1219 1349.94 43.0078 1354.43 43.0078V41.0078C1350.45 41.0078 1345.25 39.313 1338.79 35.7605L1337.83 37.5129ZM1354.43 43.0078C1359.12 43.0078 1363.07 42.0009 1366.21 39.9102L1365.1 38.2461C1362.38 40.0616 1358.84 41.0078 1354.43 41.0078V43.0078ZM1366.21 39.9102C1369.21 37.909 1371.88 35.5723 1374.22 32.9007L1372.72 31.5837C1370.5 34.1204 1367.96 36.341 1365.1 38.2461L1366.21 39.9102ZM1374.22 32.9007C1376.54 30.2451 1378.54 27.4205 1380.2 24.427L1378.45 23.4558C1376.86 26.3217 1374.95 29.031 1372.72 31.5837L1374.22 32.9007ZM1380.22 24.3886C1381.84 21.1567 1383.45 18.2553 1385.06 15.6823L1383.36 14.6223C1381.72 17.2577 1380.07 20.2157 1378.43 23.4942L1380.22 24.3886ZM1384.21 16.1523H1429.13V14.1523H1384.21V16.1523ZM1428.13 15.1523V244.156H1430.13V15.1523H1428.13ZM1429.13 243.156H1393.98V245.156H1429.13V243.156ZM1394.7 243.465C1391.22 239.829 1387.45 233.992 1383.4 225.887C1379.35 217.795 1375.05 207.498 1370.5 194.986L1368.62 195.67C1373.19 208.224 1377.52 218.597 1381.61 226.781C1385.69 234.952 1389.57 240.997 1393.25 244.847L1394.7 243.465ZM1370.5 194.99C1361.39 169.59 1353.56 149.385 1347.04 134.383L1345.21 135.18C1351.71 150.125 1359.51 170.285 1368.62 195.666L1370.5 194.99ZM1347.05 134.399C1340.83 119.353 1332.98 105.287 1323.5 92.2021L1321.88 93.376C1331.27 106.333 1339.05 120.261 1345.2 135.163L1347.05 134.399ZM1323.5 92.2052C1302.52 63.0317 1275.27 45.7841 1241.79 40.5316L1241.48 42.5075C1274.4 47.6716 1301.19 64.6037 1321.88 93.3729L1323.5 92.2052ZM1242.63 41.5195V1.48047H1240.63V41.5195H1242.63ZM1142.93 705.649C1123.72 696.86 1110.21 690.675 1102.4 687.095L1101.57 688.913C1109.38 692.494 1122.89 698.679 1142.1 707.468L1142.93 705.649ZM1102.43 687.109C1094.48 683.136 1086.19 681.145 1077.57 681.145V683.145C1085.87 683.145 1093.86 685.059 1101.54 688.898L1102.43 687.109ZM1077.57 681.145C1073.12 681.145 1068.57 683.587 1063.93 688.145C1059.28 692.714 1054.42 699.519 1049.36 708.509L1051.1 709.491C1056.12 700.578 1060.87 693.954 1065.33 689.572C1069.8 685.178 1073.88 683.145 1077.57 683.145V681.145ZM1050.23 708H1004.82V710H1050.23V708ZM1005.82 709V467.789H1003.82V709H1005.82ZM1004.82 468.789H1038.51V466.789H1004.82V468.789ZM1037.79 468.48C1044.84 475.854 1051.13 485.994 1056.63 498.942L1058.47 498.16C1052.91 485.066 1046.5 474.698 1039.23 467.098L1037.79 468.48ZM1056.64 498.961C1062.49 511.969 1068.51 526.117 1074.69 541.406L1076.54 540.656C1070.36 525.347 1064.33 511.175 1058.46 498.14L1056.64 498.961ZM1074.7 541.43C1081.21 556.413 1088.22 571.884 1095.71 587.843L1097.52 586.993C1090.04 571.051 1083.04 555.597 1076.53 540.633L1074.7 541.43ZM1095.71 587.843C1103.23 603.861 1112.38 618.737 1123.17 632.469L1124.74 631.234C1114.05 617.622 1104.97 602.876 1097.52 586.993L1095.71 587.843ZM1123.17 632.474C1147.42 662.949 1178.26 680.18 1215.65 684.116L1215.86 682.127C1179.03 678.25 1148.67 661.301 1124.74 631.229L1123.17 632.474ZM1214.75 683.121V723.16H1216.75V683.121H1214.75ZM1215.84 722.164C1186.61 719.566 1162.31 714.049 1142.91 705.641L1142.11 707.476C1161.77 715.995 1186.3 721.546 1215.67 724.156L1215.84 722.164ZM1256.4 683.626C1291.78 679.367 1319.22 664.934 1338.61 640.282L1337.04 639.046C1318.02 663.222 1291.1 677.435 1256.16 681.64L1256.4 683.626ZM1338.61 640.277C1355.68 618.289 1364.21 593.17 1364.21 564.957H1362.21C1362.21 592.733 1353.82 617.419 1337.03 639.051L1338.61 640.277ZM1364.21 564.957C1364.21 536.531 1359.15 513.709 1348.94 496.574L1347.22 497.598C1357.19 514.317 1362.21 536.743 1362.21 564.957H1364.21ZM1348.94 496.581C1338.78 479.214 1325.35 463.983 1308.66 450.889L1307.42 452.463C1323.93 465.41 1337.19 480.453 1347.21 497.591L1348.94 496.581ZM1308.67 450.903C1292.33 437.505 1273.55 425.422 1252.34 414.651L1251.43 416.435C1272.54 427.148 1291.19 439.154 1307.4 452.449L1308.67 450.903ZM1252.34 414.651C1231.17 403.904 1209.52 393.321 1187.37 382.9L1186.52 384.71C1208.65 395.122 1230.28 405.697 1251.43 416.435L1252.34 414.651ZM1187.39 382.908C1165.59 372.171 1144.11 361.109 1122.97 349.721L1122.02 351.482C1143.19 362.881 1164.68 373.954 1186.5 384.702L1187.39 382.908ZM1122.98 349.73C1102.21 338.046 1083.72 324.744 1067.51 309.827L1066.15 311.298C1082.49 326.329 1101.11 339.72 1122 351.473L1122.98 349.73ZM1067.51 309.827C1030.92 276.155 1012.65 235.241 1012.65 187.027H1010.65C1010.65 235.819 1029.17 277.261 1066.15 311.298L1067.51 309.827ZM1012.65 187.027C1012.65 138.128 1029.32 96.3853 1062.67 61.7443L1061.22 60.3573C1027.51 95.3778 1010.65 137.62 1010.65 187.027H1012.65ZM1062.66 61.7515C1098.27 25.4885 1144.42 5.39319 1201.17 1.50156L1201.04 -0.493751C1143.86 3.42713 1097.23 23.6964 1061.23 60.3501L1062.66 61.7515ZM1200.11 0.503906V41.0312H1202.11V0.503906H1200.11ZM1200.98 40.0395C1180.66 42.6617 1163.6 49.1846 1149.84 59.6445C1136.08 70.1061 1125.69 84.4667 1118.63 102.682L1120.49 103.404C1127.44 85.4864 1137.63 71.4453 1151.05 61.2364C1164.48 51.0257 1181.19 44.6091 1201.23 42.023L1200.98 40.0395ZM1118.63 102.681C1114.01 114.551 1111.73 129.332 1111.73 146.988H1113.73C1113.73 129.488 1116 114.973 1120.49 103.405L1118.63 102.681ZM1111.73 146.988C1111.73 164.778 1117 181.411 1127.52 196.867L1129.18 195.742C1118.87 180.599 1113.73 164.355 1113.73 146.988H1111.73ZM1127.52 196.867C1138.02 212.276 1151.78 226.03 1168.79 238.135L1169.95 236.506C1153.1 224.522 1139.52 210.932 1129.18 195.742L1127.52 196.867ZM1168.79 238.135C1185.77 250.219 1205.03 261.316 1226.56 271.429L1227.41 269.618C1205.97 259.549 1186.82 248.511 1169.95 236.506L1168.79 238.135ZM1226.56 271.431C1248.37 281.522 1270.51 291.776 1292.97 302.192L1293.81 300.378C1271.35 289.961 1249.21 279.707 1227.4 269.616L1226.56 271.431ZM1292.97 302.195C1315.74 312.6 1337.85 323.818 1359.31 335.849L1360.29 334.104C1338.78 322.046 1316.62 310.804 1293.81 300.376L1292.97 302.195ZM1359.31 335.852C1381.06 347.859 1400.35 361.807 1417.22 377.697L1418.59 376.241C1401.6 360.229 1382.16 346.183 1360.28 334.101L1359.31 335.852ZM1417.21 377.691C1454.78 413.64 1473.54 457.001 1473.54 507.828H1475.54C1475.54 456.442 1456.55 412.563 1418.59 376.246L1417.21 377.691ZM1473.54 507.828C1473.54 562.895 1453.63 610.825 1413.77 651.661L1415.2 653.058C1455.41 611.863 1475.54 563.438 1475.54 507.828H1473.54ZM1413.76 651.666C1371.95 695.095 1319.46 718.759 1256.22 722.65L1256.34 724.647C1320.06 720.726 1373.03 696.863 1415.2 653.053L1413.76 651.666ZM1257.28 723.648V682.633H1255.28V723.648H1257.28ZM1828.55 15.1523H1829.55V14.1523H1828.55V15.1523ZM1828.55 43.9609L1828.93 44.885L1829.55 44.6294V43.9609H1828.55ZM1779.72 62.0273L1780.21 62.9005L1780.21 62.8967L1780.22 62.8928L1779.72 62.0273ZM1779.72 662.125L1779.23 662.998L1779.24 663.001L1779.72 662.125ZM1829.52 680.191H1830.52V679.514L1829.89 679.263L1829.52 680.191ZM1829.52 709V710H1830.52V709H1829.52ZM1566.34 709H1565.34V710H1566.34V709ZM1566.34 680.191L1565.96 679.267L1565.34 679.523V680.191H1566.34ZM1615.66 662.125L1615.18 661.247L1615.17 661.249L1615.66 662.125ZM1615.66 62.0273L1615.17 62.9036L1615.18 62.9052L1615.66 62.0273ZM1566.34 43.9609H1565.34V44.6294L1565.96 44.885L1566.34 43.9609ZM1566.34 15.1523V14.1523H1565.34V15.1523H1566.34ZM1827.55 15.1523V43.9609H1829.55V15.1523H1827.55ZM1828.16 43.0369C1818.76 46.9293 1809.85 50.0069 1801.43 52.2727L1801.95 54.2039C1810.46 51.9124 1819.46 48.8051 1828.93 44.885L1828.16 43.0369ZM1801.43 52.2727C1792.9 54.5691 1785.49 57.5288 1779.22 61.1619L1780.22 62.8928C1786.31 59.3644 1793.55 56.4647 1801.95 54.2039L1801.43 52.2727ZM1779.23 61.1541C1764.82 69.197 1757.72 83.9259 1757.72 104.996H1759.72C1759.72 84.3996 1766.62 70.4827 1780.21 62.9005L1779.23 61.1541ZM1757.72 104.996V619.156H1759.72V104.996H1757.72ZM1757.72 619.156C1757.72 640.226 1764.82 654.955 1779.23 662.998L1780.21 661.252C1766.62 653.67 1759.72 639.753 1759.72 619.156H1757.72ZM1779.24 663.001C1785.83 666.627 1793.39 669.584 1801.92 671.88L1802.44 669.948C1794.04 667.687 1786.63 664.785 1780.2 661.249L1779.24 663.001ZM1801.92 671.88C1810.34 674.146 1819.42 677.225 1829.15 681.12L1829.89 679.263C1820.1 675.345 1810.95 672.239 1802.44 669.948L1801.92 671.88ZM1828.52 680.191V709H1830.52V680.191H1828.52ZM1829.52 708H1566.34V710H1829.52V708ZM1567.34 709V680.191H1565.34V709H1567.34ZM1566.72 681.115C1576.13 677.223 1585.04 674.145 1593.46 671.88L1592.94 669.948C1584.42 672.24 1575.43 675.347 1565.96 679.267L1566.72 681.115ZM1593.46 671.88C1601.98 669.584 1609.55 666.627 1616.14 663.001L1615.17 661.249C1608.75 664.785 1601.33 667.687 1592.94 669.948L1593.46 671.88ZM1616.14 663.003C1630.87 654.965 1638.14 640.237 1638.14 619.156H1636.14C1636.14 639.742 1629.09 653.66 1615.18 661.247L1616.14 663.003ZM1638.14 619.156V104.996H1636.14V619.156H1638.14ZM1638.14 104.996C1638.14 83.9153 1630.87 69.1874 1616.14 61.1494L1615.18 62.9052C1629.09 70.4923 1636.14 84.4103 1636.14 104.996H1638.14ZM1616.14 61.1511C1609.55 57.5257 1601.98 54.5685 1593.46 52.2727L1592.94 54.2039C1601.33 56.4653 1608.75 59.3676 1615.17 62.9036L1616.14 61.1511ZM1593.46 52.2727C1585.04 50.0069 1576.13 46.9293 1566.72 43.0369L1565.96 44.885C1575.43 48.8051 1584.42 51.9124 1592.94 54.2039L1593.46 52.2727ZM1567.34 43.9609V15.1523H1565.34V43.9609H1567.34ZM1566.34 16.1523H1828.55V14.1523H1566.34V16.1523ZM2203.06 723.648L2202.99 724.646L2204.06 724.721V723.648H2203.06ZM1996.52 610.367L1995.73 610.982L1995.73 610.982L1996.52 610.367ZM1996.52 114.273L1995.73 113.658L1995.73 113.659L1996.52 114.273ZM2203.06 0.992188H2204.06V-0.0805939L2202.99 -0.0053497L2203.06 0.992188ZM2203.06 41.0312L2203.16 42.0261L2204.06 41.9344V41.0312H2203.06ZM2095.15 117.203L2094.26 116.738L2094.26 116.747L2095.15 117.203ZM2142.02 662.125L2141.48 662.962L2141.48 662.966L2142.02 662.125ZM2203.06 683.121H2204.06V682.217L2203.16 682.126L2203.06 683.121ZM2243.59 683.121L2243.48 682.126L2242.59 682.219V683.121H2243.59ZM2381.28 508.805L2380.3 508.629L2380.3 508.634L2381.28 508.805ZM2304.62 62.5156L2305.17 61.6785L2305.16 61.6744L2304.62 62.5156ZM2243.59 41.0312H2242.59V41.922L2243.47 42.0246L2243.59 41.0312ZM2243.59 0.503906L2243.66 -0.493669L2242.59 -0.568292V0.503906H2243.59ZM2450.62 113.297L2449.83 113.912L2449.83 113.912L2450.62 113.297ZM2450.62 610.367L2449.83 609.752L2449.83 609.752L2450.62 610.367ZM2243.59 723.16H2242.59V724.232L2243.66 724.158L2243.59 723.16ZM2203.13 722.651C2120.1 716.813 2051.5 679.205 1997.3 609.752L1995.73 610.982C2050.25 680.853 2119.35 718.765 2202.99 724.646L2203.13 722.651ZM1997.3 609.753C1944.73 542.244 1918.41 459.624 1918.41 361.832H1916.41C1916.41 460.003 1942.84 543.073 1995.73 610.982L1997.3 609.753ZM1918.41 361.832C1918.41 264.693 1944.73 182.397 1997.3 114.888L1995.73 113.659C1942.84 181.566 1916.41 264.31 1916.41 361.832H1918.41ZM1997.3 114.889C2051.5 45.4361 2120.1 7.82796 2203.13 1.98972L2202.99 -0.0053497C2119.35 5.87517 2050.25 43.7879 1995.73 113.658L1997.3 114.889ZM2202.06 0.992188V41.0312H2204.06V0.992188H2202.06ZM2202.96 40.0364C2154.74 44.9563 2118.49 70.5704 2094.26 116.738L2096.03 117.668C2119.98 72.039 2155.67 46.8718 2203.16 42.0261L2202.96 40.0364ZM2094.26 116.747C2067.13 169.698 2053.62 251.436 2053.62 361.832H2055.62C2055.62 251.525 2069.13 170.177 2096.04 117.659L2094.26 116.747ZM2053.62 361.832C2053.62 442.935 2060.91 508.591 2075.51 558.767C2090.11 608.934 2112.06 643.737 2141.48 662.962L2142.57 661.288C2113.72 642.427 2091.96 608.138 2077.43 558.208C2062.9 508.285 2055.62 442.838 2055.62 361.832H2053.62ZM2141.48 662.966C2159.85 674.774 2180.35 681.822 2202.96 684.116L2203.16 682.126C2180.85 679.863 2160.66 672.914 2142.56 661.284L2141.48 662.966ZM2202.06 683.121V723.648H2204.06V683.121H2202.06ZM2243.69 684.116C2280.42 680.344 2310.37 663.809 2333.48 634.547C2356.57 605.315 2372.81 563.427 2382.27 508.976L2380.3 508.634C2370.87 562.906 2354.72 604.433 2331.91 633.307C2309.13 662.15 2279.67 678.411 2243.48 682.126L2243.69 684.116ZM2382.27 508.981C2389.44 468.865 2393.02 419.811 2393.02 361.832H2391.02C2391.02 419.738 2387.44 468.666 2380.3 508.629L2382.27 508.981ZM2393.02 361.832C2393.02 281.054 2385.74 215.642 2371.13 165.629C2356.53 115.623 2334.58 80.9031 2305.17 61.6786L2304.07 63.3527C2332.93 82.2141 2354.68 116.423 2369.21 166.189C2383.74 215.949 2391.02 281.151 2391.02 361.832H2393.02ZM2305.16 61.6744C2286.8 49.8696 2266.31 42.6589 2243.7 40.0379L2243.47 42.0246C2265.79 44.612 2285.99 51.7242 2304.08 63.3568L2305.16 61.6744ZM2244.59 41.0312V0.503906H2242.59V41.0312H2244.59ZM2243.52 1.50148C2327.2 7.34013 2395.96 44.7883 2449.83 113.912L2451.41 112.682C2397.2 43.1335 2327.94 5.38643 2243.66 -0.493669L2243.52 1.50148ZM2449.83 113.912C2502.73 181.747 2529.21 264.368 2529.21 361.832H2531.21C2531.21 263.984 2504.62 180.914 2451.41 112.682L2449.83 113.912ZM2529.21 361.832C2529.21 459.296 2502.73 541.917 2449.83 609.752L2451.41 610.982C2504.62 542.75 2531.21 459.68 2531.21 361.832H2529.21ZM2449.83 609.752C2395.96 678.876 2327.2 716.324 2243.52 722.163L2243.66 724.158C2327.94 718.278 2397.2 680.531 2451.41 610.982L2449.83 609.752ZM2244.59 723.16V683.121H2242.59V723.16H2244.59Z" fill="black" mask="url(#path-1-outside-1_6_12)"/>
</g>
<defs>
<filter id="filter0_d_6_12" x="0.816406" y="0.503906" width="2533.39" height="731.145" filterUnits="userSpaceOnUse" color-interpolation-filters="sRGB">
<feFlood flood-opacity="0" result="BackgroundImageFix"/>
<feColorMatrix in="SourceAlpha" type="matrix" values="0 0 0 0 0 0 0 0 0 0 0 0 0 0 0 0 0 0 127 0" result="hardAlpha"/>
<feOffset dy="4"/>
<feGaussianBlur stdDeviation="2"/>
<feComposite in2="hardAlpha" operator="out"/>
<feColorMatrix type="matrix" values="0 0 0 0 0 0 0 0 0 0 0 0 0 0 0 0 0 0 0.25 0"/>
<feBlend mode="normal" in2="BackgroundImageFix" result="effect1_dropShadow_6_12"/>
<feBlend mode="normal" in="SourceGraphic" in2="effect1_dropShadow_6_12" result="shape"/>
</filter>
</defs>
</svg>
